<svg width="800" height="600" xmlns="http://www.w3.org/2000/svg">

 <g>
  <title>Layer 1</title>
  <g opacity="0.5">
   <path d="m401,45c70.691,0 134.695,28.656 181.021,74.979c46.323,46.326 74.979,110.33 74.979,181.021c0,70.691 -28.656,134.695 -74.979,181.018c-46.326,46.326 -110.33,74.982 -181.021,74.982c-70.691,0 -134.695,-28.656 -181.018,-74.982c-46.326,-46.323 -74.982,-110.327 -74.982,-181.018s28.656,-134.695 74.982,-181.021c46.323,-46.323 110.327,-74.979 181.018,-74.979zm-10.029,160.379c0,-4.319 0.761,-8.315 2.282,-11.988c1.515,-3.66 3.797,-6.994 6.836,-9.98c3.028,-2.98 6.341,-5.241 9.916,-6.758c3.593,-1.511 7.463,-2.282 11.603,-2.282c4.143,0 8.006,0.771 11.564,2.278c3.561,1.521 6.828,3.782 9.808,6.779c2.976,2.987 5.212,6.31 6.695,9.973c1.489,3.663 2.236,7.659 2.236,11.978c0,4.195 -0.739,8.128 -2.229,11.767c-1.483,3.631 -3.709,6.993 -6.692,10.046c-2.965,3.043 -6.232,5.342 -9.79,6.878c-3.569,1.528 -7.432,2.306 -11.592,2.306c-4.259,0 -8.206,-0.764 -11.834,-2.278c-3.604,-1.522 -6.913,-3.807 -9.892,-6.832c-2.973,-3.046 -5.209,-6.383 -6.685,-10.032c-1.486,-3.646 -2.226,-7.596 -2.226,-11.855zm13.492,179.381c-1.118,4.002 -3.375,11.837 3.316,11.837c1.451,0 3.299,-0.81 5.5,-2.412c2.387,-1.721 5.125,-4.336 8.192,-7.799c3.116,-3.53 6.362,-7.701 9.731,-12.507c3.358,-4.795 6.888,-10.292 10.561,-16.419a1.39,1.39 0 0 1 1.907,-0.484l12.451,9.237c0.593,0.434 0.729,1.262 0.34,1.878c-5.724,9.952 -11.512,18.642 -17.362,26.056c-5.899,7.466 -11.879,13.66 -17.936,18.553l-0.095,0.07c-6.057,4.908 -12.269,8.602 -18.634,11.077c-17.713,6.86 -45.682,5.742 -53.691,-14.929c-5.062,-13.054 -0.897,-27.885 3.085,-40.651l20.089,-60.852c1.286,-4.617 2.912,-9.682 3.505,-14.439c0.974,-7.915 -2.52,-13.032 -11.147,-13.032l-17.562,0a1.402,1.402 0 0 1 -1.395,-1.399l0.077,-0.484l4.617,-16.801a1.39,1.39 0 0 1 1.356,-1.02l89.743,-2.815a1.39,1.39 0 0 1 1.434,1.34l-0.063,0.445l-38.019,125.55zm151.324,-238.547c-39.609,-39.607 -94.341,-64.112 -154.787,-64.112c-60.446,0 -115.174,24.501 -154.784,64.112c-39.61,39.609 -64.115,94.341 -64.115,154.787c0,60.446 24.505,115.178 64.115,154.784c39.606,39.61 94.338,64.115 154.784,64.115s115.178,-24.505 154.787,-64.115c39.611,-39.61 64.112,-94.338 64.112,-154.784s-24.505,-115.178 -64.112,-154.787z" fill-rule="nonzero" fill="#414143"/>
  </g>
 </g>
</svg>